<svg width="1059" height="15" fill="none" xmlns="http://www.w3.org/2000/svg"><path fill-rule="evenodd" clip-rule="evenodd" d="m14.755 0 14.752.04L44.218 0l14.795.04L73.75 0 88.5.04 103.213 0l14.495.04L132.163 0l14.752.04L161.627 0l14.776.04h.019L191.158 0l14.752.04L220.622 0l14.667.04L249.917 0l14.668.04h.167L279.38 0l14.776.04h.019L308.911 0l14.669.04h.167L338.375 0l14.657.04L367.67 0l14.668.04h.167L397.134 0l14.795.04L426.665 0l14.668.04h.167L456.128 0l14.495.04L485.078 0l14.668.04h.167L514.542 0l14.776.04h.019L544.073 0l14.668.04h.167L573.537 0l14.54.04h.254L602.832 0 617.5.04h.167L632.295 0l14.777.04h.018L661.827 0l14.668.04h.167L691.29 0l14.54.04h.117L720.585 0l14.668.04h.167L750.049 0l14.795.04L779.58 0l14.668.04h.167L809.044 0l14.494.04L837.993 0l14.669.04h.166L867.457 0l14.776.04h.019L896.988 0l14.668.04h.167L926.452 0l14.54.04h.255l14.5-.04 14.668.04h.167L985.21 0l14.777.04h.023l14.73-.04 14.67.04h.17l14.63-.04 14.79.04-14.79 14.795L1029.49.123l-14.71 14.712L999.996.05 985.21 14.835 970.498.123l-14.711 14.712L941.119.168l-14.668 14.667L911.74.123l-14.712 14.712L882.242.05l-14.785 14.786L852.745.123l-14.712 14.712L823.538.34l-14.495 14.495L794.332.123 779.62 14.835 764.834.05l-14.785 14.786L735.337.123l-14.712 14.712L705.958.168 691.29 14.835 676.578.123l-14.711 14.712L647.081.05l-14.786 14.786L617.583.123l-14.711 14.712L588.204.168l-14.668 14.667L558.825.123l-14.712 14.712L529.327.05l-14.785 14.786L499.83.123l-14.712 14.712L470.623.34l-14.495 14.495L441.417.123l-14.712 14.712L411.919.05l-14.786 14.786L382.422.123 367.71 14.835 353.043.168l-14.668 14.667L323.663.123l-14.711 14.712L294.166.05 279.38 14.835 264.668.123l-14.711 14.712L235.289.168l-14.668 14.667L205.91.123l-14.712 14.712L176.412.05l-14.785 14.786L146.915.123l-14.712 14.712L117.708.34l-14.495 14.495L88.502.123 73.79 14.835 59.004.05 44.22 14.835 29.506.123 14.795 14.835 0 .04 14.755 0Z" fill="#fff"/></svg>
