<svg width="115" height="37" viewBox="0 0 115 37" fill="none" xmlns="http://www.w3.org/2000/svg">
<path d="M27.732 15.14C27.732 23.676 22.232 29.528 14.136 29.528C6.04001 29.528 0.540009 23.676 0.540009 15.14C0.540009 6.60395 6.04001 0.751953 14.136 0.751953C22.232 0.751953 27.732 6.60395 27.732 15.14ZM24.828 15.14C24.828 7.79195 20.648 3.08395 14.136 3.08395C7.62401 3.08395 3.44401 7.79195 3.44401 15.14C3.44401 22.488 7.62401 27.196 14.136 27.196C20.648 27.196 24.828 22.488 24.828 15.14Z" fill="white"/>
<path d="M37.257 36.48H34.617L37.829 28.868L29.733 9.90395H32.549L39.105 25.612H39.281L45.617 9.90395H48.257L37.257 36.48Z" fill="white"/>
<path d="M49.776 22.532L51.932 22.268C52.328 25.568 54.572 27.416 58.224 27.416C61.172 27.416 63.24 26.316 63.24 24.072C63.24 21.96 61.744 21.3 59.06 20.816L55.76 20.244C52.416 19.672 50.348 18.132 50.348 15.052C50.348 11.62 53.208 9.37595 57.388 9.37595C62.316 9.37595 65.176 11.708 65.484 16.24L63.416 16.416C62.932 12.984 60.908 11.488 57.388 11.488C54.66 11.488 52.856 12.72 52.856 14.744C52.856 16.592 53.956 17.516 56.332 17.912L59.852 18.484C63.592 19.1 65.792 20.42 65.792 23.808C65.792 27.548 62.448 29.528 58.268 29.528C53.648 29.528 50.084 27.24 49.776 22.532Z" fill="white"/>
<path d="M70.4914 24.776V11.884H67.5434V10.564L68.6874 10.344C70.4474 9.99195 70.7994 9.15595 71.1954 7.30795L71.7674 4.57995H73.1314V9.90395H78.6754V11.884H73.1314V24.82C73.1314 26.536 73.8354 27.372 75.5954 27.372C76.9154 27.372 78.2354 26.712 79.3354 26.052V27.944C77.9714 29 76.6074 29.528 74.6714 29.528C72.1194 29.528 70.4914 28.252 70.4914 24.776Z" fill="white"/>
<path d="M97.2933 22.18L99.5813 22.488C98.6573 26.844 95.4893 29.528 90.8253 29.528C85.2813 29.528 81.1453 25.612 81.1453 19.716C81.1453 13.688 85.2373 9.37595 90.6493 9.37595C96.6333 9.37595 99.6253 13.688 99.6253 18.88V20.112H83.9173C84.0933 24.336 87.0413 27.328 90.8253 27.328C94.3453 27.328 96.5013 25.568 97.2933 22.18ZM83.9613 18.22H96.7653C96.6773 14.7 94.6973 11.488 90.6493 11.488C86.8653 11.488 84.4013 14.656 83.9613 18.22Z" fill="white"/>
<path d="M114.56 10.256L114.252 12.588C113.152 12.016 112.492 11.84 111.348 11.84C108.576 11.84 106.332 14.7 106.332 18.528V29H103.648V9.90395H106.332V13.908C107.08 11.708 109.016 9.37595 111.832 9.37595C113.02 9.37595 113.856 9.63995 114.56 10.256Z" fill="white"/>
</svg>
